<svg width="15" height="15" viewBox="0 0 15 15" fill="none" xmlns="http://www.w3.org/2000/svg">
<path d="M0 15C0 11.8441 2.56037 9.28571 5.71875 9.28571C8.87715 9.28571 11.4375 11.8441 11.4375 15H0ZM5.71875 8.57143C3.34904 8.57143 1.42969 6.65357 1.42969 4.28571C1.42969 1.91786 3.34904 0 5.71875 0C8.08846 0 10.0078 1.91786 10.0078 4.28571C10.0078 6.65357 8.08846 8.57143 5.71875 8.57143ZM10.982 10.1666C13.1876 10.7298 14.8458 12.6596 15 15H12.8672C12.8672 13.1359 12.1525 11.4385 10.982 10.1666ZM9.53609 8.54064C10.7032 7.49443 11.4375 5.97576 11.4375 4.28571C11.4375 3.27333 11.174 2.32244 10.7119 1.49776C12.3491 1.82426 13.582 3.26761 13.582 5C13.582 6.97321 11.9826 8.57143 10.0078 8.57143C9.8479 8.57143 9.69042 8.56093 9.53609 8.54064Z" fill="white"/>
</svg>
