<svg width="16" height="18" viewBox="0 0 16 18" fill="none" xmlns="http://www.w3.org/2000/svg">
<path d="M4.47212 2.41361L6.12631 4.34924L5.94759 4.54874C2.54303 5.3123 0 8.35289 0 11.9878C0 15.1834 2.5935 17.7769 5.78906 17.7769H9.4525C12.6481 17.7769 15.2416 15.184 15.2416 11.9884C15.2475 8.35289 12.7045 5.3123 9.29991 4.54874C9.31375 4.42327 9.29107 4.29647 9.23459 4.18358L10.6418 2.57274L10.7326 2.43261C10.8387 2.20124 10.8658 1.94143 10.8099 1.69314C10.7539 1.44485 10.6179 1.22182 10.4228 1.05836C10.2277 0.894899 9.98428 0.800057 9.73002 0.788421C9.47576 0.776784 9.22472 0.848998 9.0155 0.993955L8.51497 0.400205C8.40269 0.274556 8.26519 0.173977 8.11144 0.105021C7.95769 0.0360656 7.79114 0.000281753 7.62263 1.65714e-06C7.45413 -0.000278439 7.28745 0.0349515 7.13347 0.103396C6.97949 0.17184 6.84167 0.271962 6.72897 0.397236L6.20469 0.982674C5.99601 0.834702 5.7444 0.75961 5.48876 0.769012C5.23312 0.778415 4.9877 0.871788 4.79046 1.03469C4.59322 1.19759 4.45515 1.42095 4.3976 1.6702C4.34006 1.91946 4.36625 2.18073 4.47212 2.41361ZM6.72778 3.23596L5.72078 2.07221C5.95473 2.18493 6.21944 2.21694 6.47352 2.16323C6.72759 2.10951 6.9567 1.9731 7.125 1.77533L7.6 1.15902L8.12725 1.78364C8.29164 1.97482 8.51341 2.10776 8.7595 2.16264C9.00559 2.21753 9.26283 2.19143 9.49288 2.08824L8.49062 3.23596H6.72778ZM1.1875 11.9878C1.1875 8.43246 4.06838 5.55158 7.62375 5.55158C11.1791 5.55158 14.06 8.43245 14.0541 11.9866V11.9878C14.0536 13.2081 13.5686 14.3782 12.7058 15.2411C11.8429 16.104 10.6728 16.5889 9.4525 16.5894H5.78906C4.5688 16.5889 3.39865 16.104 2.53579 15.2411C1.67293 14.3782 1.18797 13.2081 1.1875 11.9878Z" fill="white"/>
<path d="M7.64469 10.4675H7.68625C8.57688 10.4912 9.28938 11.2156 9.28938 12.1062C9.28938 12.8662 8.77281 13.5016 8.07219 13.6916V14.3566C8.07219 14.5941 7.88219 14.7841 7.64469 14.7841C7.40719 14.7841 7.21719 14.5941 7.21719 14.3566V13.6916C6.86831 13.5978 6.56005 13.3917 6.34004 13.1051C6.12003 12.8186 6.00053 12.4675 6 12.1062C6 11.8687 6.19 11.6788 6.4275 11.6788C6.665 11.6788 6.855 11.8687 6.855 12.1062C6.855 12.5456 7.20531 12.8959 7.63875 12.8959C8.07219 12.8959 8.42844 12.5397 8.42844 12.1062C8.42844 11.6728 8.07219 11.3166 7.63875 11.3166H7.59719C7.17005 11.305 6.76427 11.1273 6.46603 10.8213C6.1678 10.5153 6.00062 10.1051 6 9.67781C6 8.91781 6.51656 8.2825 7.21719 8.0925V7.4275C7.21719 7.19 7.40719 7 7.64469 7C7.88219 7 8.07219 7.19 8.07219 7.4275V8.0925C8.77281 8.2825 9.28938 8.91781 9.28938 9.67781C9.28938 9.91531 9.09938 10.1053 8.86188 10.1053C8.62438 10.1053 8.43438 9.91531 8.43438 9.67781C8.43438 9.24437 8.07813 8.88812 7.64469 8.88812C7.21125 8.88812 6.855 9.24437 6.855 9.67781C6.855 10.1112 7.21125 10.4675 7.64469 10.4675Z" fill="white"/>
</svg>
